<svg width="410" height="294" viewBox="0 0 410 294" fill="none" xmlns="http://www.w3.org/2000/svg">
<path d="M373.612 294H44.1272C33.5482 294 24.8923 290.306 24.8923 285.791V282.508C24.8923 280.486 26.6314 278.631 29.4976 277.197H19.2349C8.65563 277.197 0 273.503 0 268.988C0 264.473 8.65563 260.78 19.2349 260.78H48.6872C42.622 259.394 38.4698 256.663 38.4698 253.537C38.4698 249.022 47.1257 245.328 57.7051 245.328H392.169C402.747 245.328 411.404 249.022 411.404 253.537C411.404 258.052 402.747 261.745 392.169 261.745L352.567 261.635C356.667 262.128 358.322 263.439 359.355 265.093C360.949 267.645 360.804 270.727 357.545 272.752C355.731 273.879 353.05 274.453 351.336 274.481L373.612 274.3C384.19 274.3 392.847 277.993 392.847 282.508V285.791C392.847 290.306 384.19 294 373.612 294" fill="#EDF0F2"/>
<path d="M197.361 123.569L215.726 144.772L219.211 170.041L225.319 169.892L226.113 139.228L204.123 106.519L197.361 123.569Z" fill="#E6E6E6"/>
<path d="M220.701 168.778L224.689 168.497L225.907 175.231L222.581 177.827L219.233 176.489L220.529 173.512L219.782 173.565L219.088 174.401L218.286 173.67L220.701 168.778" fill="#EBCEB1"/>
<path d="M183.18 280.66L182.551 283.998L175.763 286.24L173.314 282.354L177.023 279.564L183.81 277.322L183.18 280.66Z" fill="#333333"/>
<path d="M197.757 197.493L183.706 279.642L177.348 279.879L173.573 222.76L171.788 194.389L197.757 197.493Z" fill="#B3B3B3"/>
<path d="M216.984 196.62L207.952 277.142L202.123 277.672L195.956 215.97L191.064 197.78L216.984 196.62Z" fill="#B3B3B3"/>
<path d="M202.093 276.907L202.38 280.37L208.97 283.259L211.835 279.51L208.397 276.333L202.093 276.907" fill="#333333"/>
<path d="M173.314 198.974L170.439 189.487L173.314 178.724L216.983 180.291V196.62L173.314 198.974Z" fill="#B3B3B3"/>
<path d="M182.876 110.245L167.991 86.319L168.422 60.7994L162.367 59.9526L156.884 90.1023L173.585 125.98L182.876 110.245Z" fill="#E6E6E6"/>
<path d="M166.756 61.8044L162.776 61.4333L162.605 54.5846L166.287 52.563L169.388 54.4288L167.652 57.1574L168.399 57.2273L169.211 56.5148L169.891 57.3665L166.756 61.8044" fill="#EBCEB1"/>
<path d="M196.116 81.1108C191.788 83.8953 185.671 82.3022 181.717 85.6624C179.146 87.8472 178.193 91.7553 178.802 95.248C179.086 96.8758 179.697 98.4867 180.787 99.6677C181.495 100.434 182.378 100.992 183.301 101.413C184.536 101.975 185.857 102.282 187.188 102.346C187.094 103.603 186.891 104.85 186.583 106.068C189.069 105.777 191.554 105.485 194.04 105.194C193.882 103.696 193.724 102.198 193.566 100.7C194.173 100.326 194.749 99.8954 195.276 99.3999C198.466 96.4022 199.852 91.366 198.707 86.9339C198.171 84.8582 197.144 82.9663 196.116 81.1108" fill="#EBCEB1"/>
<path d="M184.755 84.8073C184.933 84.7392 185.113 84.6755 185.293 84.6152C187.899 83.7408 190.691 83.4816 193.414 83.8044C194.419 83.9234 195.437 84.1284 196.315 84.6449C197.615 85.409 198.489 86.7971 198.936 88.2691C199.384 89.7415 199.449 91.3061 199.452 92.8491C200.059 92.6851 200.51 92.1698 200.895 91.6586C202.027 90.1568 203.181 88.2964 203.544 86.4008C203.912 84.4846 203.243 82.2398 204.021 80.4319C204.381 79.5959 205.108 79.0012 205.668 78.2917C206.878 76.7569 207.281 74.5853 206.707 72.6984C206.338 71.4884 205.554 70.3763 204.444 69.8275C202.607 68.9196 200.397 69.7027 198.407 69.2531C197.397 69.025 196.469 68.4833 195.45 68.3051C193.302 67.9299 191.216 69.2246 189.579 70.7061C187.942 72.188 186.461 73.9493 184.462 74.8423C182.858 75.5585 181.056 75.6494 179.405 76.2395C176.65 77.2234 174.45 79.6281 173.496 82.4671C172.426 85.6487 172.679 89.6469 174.972 92.1417C176.121 93.3921 177.058 94.7947 178.01 96.2001C178.341 96.6878 180.244 98.4916 180.102 96.5985C179.991 95.129 179.421 93.7265 179.32 92.2561C179.074 88.6729 181.689 85.9748 184.755 84.8073" fill="#FEB050"/>
<path d="M203.721 106.23L182.602 104.415C182.602 104.415 175.639 113.765 167.974 140.665C160.309 167.563 165.991 191.373 165.991 191.373C165.991 191.373 189.817 186.95 223.458 190.931L213.657 124.188L203.721 106.23" fill="#E6E6E6"/>
<path d="M291.577 105.752L289.746 99.5347L292.247 98.5982L294.401 102.565L295.388 101.547L296.337 107.067L293.862 108.409L291.577 105.752Z" fill="#EBCEB1"/>
<path d="M314.6 108.389L303.222 120.09L296.613 105.085L291.833 108.01L299.717 139.872L320.656 123.919L314.6 108.389" fill="#D1E0DA"/>
<path d="M334.779 177.585L328.201 226.356L330.536 261.59L325.746 263.312L321.457 230.755L312.305 171.262L334.779 177.585Z" fill="#EBCEB1"/>
<path d="M325.756 264.305L325.227 267.955L326.428 274.893L330.384 274.507L331.129 264.231L330.546 262.583L325.756 264.305Z" fill="#514943"/>
<path d="M296.016 176.135L298.131 217.501L307.076 275.329L311.924 275.263L309.769 221.644L316.057 172.214L296.016 176.135" fill="#EBCEB1"/>
<path d="M307.156 274.341L300.959 279.022L301.733 282.52L313.078 279.733L312.155 274.68L307.156 274.341Z" fill="#514943"/>
<path d="M294.948 182.334L295.149 230.35L300.85 262.725L313.839 260.558L313.461 223.142L316.157 182.041L314.821 175.817L296.035 178.014L294.948 182.334" fill="#C7B299"/>
<path d="M317.993 223.848L322.014 257.903L333.309 256.09L330.719 223.672L334.91 182.22L332.449 170.994L313.471 174.287L317.993 223.848" fill="#C7B299"/>
<path d="M340.516 90.8148C339.651 82.3626 329.223 77.1768 324.771 85.7922C323.433 88.3807 322.366 91.2057 322.306 94.1426C322.246 97.0796 323.332 100.151 325.603 101.863L325.642 101.89C325.393 102.601 325.144 103.312 324.895 104.023C324.841 104.175 324.788 104.345 324.845 104.496C324.909 104.668 325.092 104.749 325.258 104.814C326.064 105.128 326.871 105.444 327.678 105.759C328.078 105.915 328.495 106.073 328.92 106.028C329.852 105.928 330.44 104.914 330.676 103.965C330.732 103.737 330.778 103.506 330.823 103.273C336.123 102.593 341.081 96.3399 340.516 90.8148" fill="#EACDB0"/>
<path d="M324.523 88.3154C322.975 90.1812 322.672 92.7157 322.641 95.0885C322.61 97.4085 322.036 99.5905 322.213 101.921C321.926 102.235 321.438 101.92 321.149 101.61C319.459 99.7934 317.794 97.9519 316.153 96.0865C315.987 95.8989 315.818 95.7035 315.741 95.4609C315.644 95.1538 315.708 94.8183 315.778 94.5022C317.164 88.2592 320.244 84.0267 324.417 79.5889C326.443 77.4338 331.293 75.4651 333.389 78.7504C333.866 79.4988 333.94 80.4464 333.958 81.3481C333.969 81.8865 333.963 82.4403 333.77 82.9407C333.002 84.9359 331.142 84.5239 329.573 84.9532C327.637 85.4822 325.829 86.7405 324.523 88.3154" fill="#333333"/>
<path d="M337.867 94.684C337.596 96.5031 336.875 98.5036 336.09 100.14C335.818 100.707 334.504 101.917 334.41 102.315C334.136 103.467 336.058 106.581 336.513 107.697C340.47 106.188 344.427 104.68 348.384 103.171C348.687 103.056 349.005 102.929 349.21 102.668C349.396 102.431 349.461 102.118 349.516 101.817C350.607 95.9026 349.918 90.3222 348.52 84.5946C347.123 78.8694 342.844 73.7195 336.982 73.1745C332.245 72.7339 328.431 75.7816 329.404 81.0352C330.139 85.0012 334.56 86.5174 336.649 89.4783C337.96 91.3371 338.165 93.0091 337.867 94.684" fill="#333333"/>
<path d="M335.374 106.683C335.464 106.731 335.554 106.78 335.643 106.829C339.901 109.175 342.479 117.406 343.943 122.237C347.723 134.705 348.521 147.262 347.377 160.302C346.761 167.324 345.838 174.314 344.777 181.279C344.484 183.203 340.723 200.271 341.536 200.804C333.199 195.336 324.685 190.084 315.559 186.357C306.434 182.63 296.576 185.928 286.801 186.812C292.326 165.25 299.244 138.016 307.834 117.634C308.861 115.196 309.669 112.557 311.03 110.301C312.596 107.702 314.547 107.141 317.084 105.829C317.953 105.379 318.829 104.927 319.757 104.658C324.651 103.241 330.878 104.298 335.374 106.683" fill="#D1E0DA"/>
<path d="M299.284 156.622C297.321 156.746 295.357 156.87 293.394 157.011C293.332 156.132 293.271 155.254 293.209 154.375C294.539 153.968 295.869 153.559 297.199 153.151C296.989 152.763 296.776 152.377 296.567 151.988C298.273 152.118 299.972 152.288 301.675 152.446C301.867 153.334 302.038 154.229 302.259 155.109C301.267 155.608 300.253 156.078 299.284 156.622" fill="#EBCEB1"/>
<path d="M330.805 112.747C330.31 112.845 329.833 113.128 329.394 113.464C327.577 114.854 326.368 116.88 325.828 119.099C324.973 122.612 325.214 126.142 324.548 129.603C323.786 133.561 322.611 137.279 321.404 141.092C314.515 145.349 307.575 148.925 299.986 151.667C300.456 153.425 300.902 155.19 301.386 156.944C311.72 155.213 321.172 151.873 330.952 148.142C332.483 142.652 333.968 137.289 335.124 131.662C336.16 126.616 337.626 121.469 336.329 116.354C335.596 113.466 333.527 112.208 330.805 112.747" fill="#D1E0DA"/>
<path d="M122.556 148.563L120.706 152.214L126.202 156.067L129.844 153.969L129.999 150.272L126.833 150.3L127.18 149.616L128.201 149.297L127.874 148.247L122.556 148.563" fill="#EBCEB1"/>
<path d="M91.7486 108.383L103.219 134.23L124.278 147.663L121.693 153.368L94.1236 141.809L73.8818 107.922L91.7486 108.383" fill="#9299A2"/>
<path d="M70.6993 270.049L70.4466 273.069L68.5127 275.524C68.5127 275.524 67.9578 279.208 69.0147 279.855C70.0717 280.502 86.5712 282.52 86.5712 282.52L88.2713 279.906L86.9076 277.02L78.1871 272.909L75.1914 269.481L70.6993 270.049" fill="#998675"/>
<path d="M87.948 263.528L87.6954 266.547L85.7892 269.004C85.7892 269.004 85.2382 272.688 86.2776 273.334C87.3165 273.979 103.548 275.974 103.548 275.974L105.224 273.358L103.886 270.474L95.3116 266.376L92.3688 262.952L87.948 263.528" fill="#998675"/>
<path d="M68.0953 210.836C69.5119 213.907 70.7874 216.694 71.0184 220.651C71.2454 224.542 70.5388 228.417 70.0039 232.276C68.1522 245.632 68.3339 259.186 68.5195 272.676C73.0345 272.878 77.5539 272.975 82.0734 272.966C82.842 272.964 83.7077 272.917 84.2194 272.326C84.7318 271.733 84.6773 270.838 84.5919 270.049C83.5554 260.465 83.6275 250.769 83.7675 241.14C83.8369 236.398 83.9952 232.342 84.9383 227.766C85.8754 223.219 85.7082 218.508 85.4059 213.9C84.6649 202.615 82.4463 191.538 81.8352 180.257C81.7241 178.211 81.5364 176.011 80.2513 174.448C78.7067 172.567 76.0587 172.183 73.6681 172.185C67.0964 172.188 59.6804 173.257 59.3499 181.47C59.2397 184.208 59.9398 186.906 60.6832 189.538C62.3866 195.566 64.2379 201.653 66.5972 207.448C67.088 208.653 67.6005 209.762 68.0953 210.836" fill="#667482"/>
<path d="M86.4184 205.649C87.7689 208.789 88.9843 211.637 89.0312 215.601C89.0777 219.499 88.1338 223.334 87.3728 227.161C84.7379 240.405 84.2527 253.954 83.7752 267.436C88.5596 267.867 93.3545 268.194 98.1542 268.415C98.9706 268.452 99.8925 268.449 100.465 267.884C101.039 267.319 101.026 266.422 100.975 265.63C100.202 253.653 99.3307 241.639 100.149 229.666C100.462 225.084 101.022 220.52 101.272 215.934C101.76 207.003 101.063 198.063 100.007 189.192C99.3568 183.728 100.278 172.031 94.9143 168.723C92.486 167.226 89.4153 167.005 86.5764 167.453C85.1285 167.681 83.6834 168.082 82.4592 168.866C80.1002 170.375 78.8544 173.145 78.6002 175.874C78.3459 178.604 78.9546 181.334 79.6126 184C81.1195 190.108 82.7816 196.282 84.997 202.189C85.4577 203.418 85.9465 204.552 86.4184 205.649" fill="#667482"/>
<path d="M62.8841 102.847C59.4249 104.961 56.8125 108.186 55.9063 112.973C51.8136 134.592 54.3409 156.89 56.8807 178.761C57.0539 180.253 57.321 181.919 58.4983 182.806C59.8307 183.811 61.6828 183.354 63.2667 182.874C75.7231 179.096 88.4866 176.393 101.379 174.802C100.6 158.72 99.0876 142.676 96.8482 126.741C96.2427 122.433 95.5731 118.091 94.0116 114.047C90.5259 105.018 84.6083 98.5825 74.6889 99.4185C70.4807 99.7735 66.2756 100.776 62.8841 102.847" fill="#9299A2"/>
<path d="M84.6043 81.6431C84.7727 84.3962 84.9022 87.3327 83.5665 89.7233C82.429 91.7607 80.4032 93.0727 78.847 94.7914C77.8995 95.8378 77.1112 97.2002 76.934 98.6412C76.7587 100.063 77.5006 101.277 77.4917 102.7C77.4909 102.833 77.4853 102.972 77.4248 103.089C77.3598 103.215 77.2399 103.301 77.1184 103.368C76.4945 103.717 75.7515 103.73 75.0414 103.734C74.2029 103.739 73.2867 103.855 72.4554 103.75C71.3684 103.613 71.5893 103.387 71.4871 102.245C71.3339 100.543 71.1106 98.8338 70.5777 97.2081C69.4778 93.8533 67.1369 90.9875 66.4733 87.4716C65.7395 83.5812 66.8365 79.7686 68.0335 76.0697C68.5688 74.4146 69.1566 72.7281 70.2577 71.4029C72.676 68.4907 78.3482 67.5605 81.0584 70.5359C84.2787 74.072 84.3184 76.9709 84.6043 81.6431" fill="#FEE4D6"/>
<path d="M83.7471 79.755C85.5034 82.2361 85.7889 85.7376 84.4588 88.4857C86.4994 87.0178 87.4601 84.4032 87.8711 81.8737C88.0973 80.4827 88.1931 79.0607 88.038 77.6594C87.5484 73.2336 84.1445 69.1437 79.86 68.5564C77.0263 68.1676 77.0375 71.8909 78.1418 73.7026C79.5946 76.0854 82.1496 77.4991 83.7471 79.755" fill="#8C6239"/>
<path d="M76.2423 66.2431C74.6548 65.46 72.8203 65.4145 71.0669 65.569C68.6638 65.781 63.8296 66.5125 60.9747 68.3572C59.3647 64.8091 54.7178 62.1275 51.3271 63.9681C49.3415 65.0459 48.4818 67.3886 49.3988 69.225C49.6274 69.6837 49.9546 70.1106 50.3796 70.4553C50.7365 70.7445 51.1611 70.9764 51.4655 71.3053C52.6195 72.5509 51.5521 74.3187 50.7028 75.7279C49.7437 77.3189 49.0861 79.0393 48.7621 80.803C48.5792 81.7981 48.5091 82.8477 48.9513 83.7829C49.3936 84.7185 50.4686 85.5029 51.6599 85.4495C53.8168 85.3537 54.2515 83.4602 54.3629 81.7394C54.4916 79.7575 54.8152 78.0189 55.6874 76.1726C56.0069 75.4965 56.4436 74.7836 57.1489 74.5898C57.2837 74.553 57.4192 74.5386 57.5551 74.539C57.0812 76.1945 56.8245 77.8714 57.0739 79.7141C57.5708 83.3858 58.8888 86.9666 61.0701 89.9143C63.2514 92.8624 66.3161 95.1509 69.7821 96.144C70.0271 93.8843 67.7147 92.1731 67.2941 89.9411C67.0663 88.7332 67.4272 87.4703 68.0407 86.4141C68.6542 85.3582 69.5054 84.4747 70.3483 83.6023C71.801 82.0989 73.2534 80.5955 74.7061 79.0917C75.8914 77.8652 77.0875 76.6242 77.9733 75.1535C79.7753 72.1607 79.6911 67.944 76.2423 66.2431" fill="#8C6239"/>
<path d="M196.631 29.8393C197.329 31.1022 197.889 32.4494 198.592 33.6912C201.246 38.382 203.852 43.0546 206.397 47.823L197.763 53.0659C192.617 56.1888 192.498 59.9704 197.495 61.4717L211.559 65.6864C216.557 67.1853 224.73 69.6383 229.733 71.1372L243.797 75.3548C248.794 76.8511 253.823 73.7972 254.973 68.5647L258.211 53.8449C259.356 48.6123 261.233 40.0523 262.383 34.8173L265.622 20.097C266.777 14.867 263.503 13.1425 258.356 16.265L249.532 21.6248C246.298 15.9431 243.064 10.2936 241.817 8.2261C238.975 3.53037 233.513 -0.0628156 222.786 0.000824405C214.823 0.0462816 193.669 0.171094 180.286 0.250851C182.488 4.23703 184.69 8.2232 186.892 12.209C190.138 18.0858 193.384 23.963 196.631 29.8393" fill="#64A195"/>
<path d="M131.101 49.4491L159.445 66.5927C163.653 69.1362 169.172 67.7039 171.698 63.409C171.698 63.409 187.686 36.3293 189.166 33.8234C190.241 31.9832 191.472 31.2493 192.625 31.5216C193.027 31.6167 193.351 31.1931 193.147 30.8241L176.258 0.250822C171.626 0.27727 167.918 0.301237 166.02 0.311982C158.64 0.357439 150.203 1.67817 144.277 10.9527C139.719 18.0878 128.161 37.0786 128.161 37.0786C125.572 41.3358 126.892 46.906 131.101 49.4491" fill="#64A195"/>
<path d="M252.579 136.491C251.169 136.45 249.763 136.417 248.362 136.394C243.094 136.307 237.865 136.186 232.589 135.963L232.704 125.636C232.775 119.481 229.697 117.42 225.864 121.049L215.086 131.27C211.255 134.901 204.988 140.84 201.155 144.476L190.375 154.695C186.547 158.328 186.479 164.342 190.228 168.064L200.774 178.538C204.526 182.256 210.661 188.342 214.412 192.065L224.958 202.539C228.702 206.265 231.829 204.27 231.9 198.115L232.016 187.56C238.407 187.648 244.771 187.721 247.134 187.69C252.504 187.614 258.313 184.658 263.812 175.165C267.895 168.12 278.74 149.4 285.6 137.557C281.151 137.436 276.702 137.315 272.252 137.194C265.702 137.015 259.103 136.678 252.579 136.491" fill="#64A195"/>
<path d="M295.35 100.265C291.785 92.5516 282 72.5319 282 72.5319C279.804 68.0453 274.497 66.3266 270.207 68.7218L241.304 84.8446C237.015 87.2394 235.348 92.8471 237.606 97.2978C237.606 97.2978 251.816 125.411 253.13 128.013C254.102 129.913 254.073 131.379 253.251 132.255C252.964 132.56 253.148 133.065 253.56 133.076L287.684 134.005C290.059 129.907 291.958 126.625 292.931 124.946C296.713 118.414 299.983 110.291 295.35 100.265" fill="#64A195"/>
<path d="M132.884 133.687C133.581 132.423 134.417 131.238 135.094 129.981C137.648 125.232 140.214 120.535 142.889 115.843L151.675 120.81C156.91 123.772 160.124 121.944 158.822 116.75L155.147 102.139C153.842 96.9457 151.709 88.4514 150.402 83.2544L146.729 68.6416C145.422 63.4499 140.305 60.5572 135.353 62.2135L121.423 66.87C116.473 68.5312 108.375 71.2442 103.421 72.9017L89.4903 77.5582C84.5382 79.2087 84.774 82.9911 90.0095 85.9537L98.9902 91.0292C95.9051 96.7981 92.8468 102.551 91.7606 104.713C89.2974 109.631 89.0929 116.305 94.63 125.774C98.738 132.804 109.657 151.478 116.565 163.29C118.764 159.303 120.962 155.314 123.16 151.326C126.402 145.446 129.643 139.566 132.884 133.687" fill="#64A195"/>
<path d="M173.625 138.609C173.625 138.609 142.87 138.292 140.023 138.263C137.939 138.251 136.697 137.535 136.335 136.375C136.209 135.971 135.69 135.9 135.486 136.269L118.625 166.859C121.014 170.947 122.929 174.219 123.909 175.895C127.719 182.409 133.134 189.206 143.898 189.714C152.179 190.104 173.924 190.633 173.924 190.633C178.798 190.75 182.768 186.733 182.738 181.705L182.544 147.835C182.514 142.808 178.498 138.652 173.625 138.609" fill="#64A195"/>
<path d="M107.463 139.734L106.409 143.707L112.575 146.266L115.701 143.417L115.088 139.77L112 140.493L112.198 139.748L113.13 139.213L112.593 138.258L107.463 139.734" fill="#EBCEB1"/>
<path d="M68.9647 107.579C69.1371 107.619 69.2971 107.678 69.4415 107.762C70.0469 108.112 70.6725 109.453 71.0859 110.021C73.013 112.668 74.9397 115.316 76.8672 117.963C78.8801 120.729 80.893 123.495 82.9059 126.261C83.4404 126.995 84.7356 129.651 85.6081 129.973L108.959 138.477L107.612 144.619L78.2866 139.375C74.8358 135.681 71.3846 131.987 67.9338 128.292C64.4064 124.516 53.7693 117.164 59.7587 111.371C60.8862 110.281 62.3041 109.564 63.7428 108.98C65.1398 108.412 67.4995 107.25 68.9647 107.579" fill="#9299A2"/>
</svg>
